<?xml version="1.0" encoding="UTF-8" standalone="no"?>
<!-- Created with Inkscape (http://www.inkscape.org/) -->

<svg
   width="120"
   height="66"
   viewBox="0 0 31.75 17.462501"
   version="1.1"
   id="svg5"
   inkscape:version="1.2.1 (9c6d41e410, 2022-07-14)"
   sodipodi:docname="thumb_missing.svg"
   xmlns:inkscape="http://www.inkscape.org/namespaces/inkscape"
   xmlns:sodipodi="http://sodipodi.sourceforge.net/DTD/sodipodi-0.dtd"
   xmlns:xlink="http://www.w3.org/1999/xlink"
   xmlns="http://www.w3.org/2000/svg"
   xmlns:svg="http://www.w3.org/2000/svg">
  <sodipodi:namedview
     id="namedview7"
     pagecolor="#505050"
     bordercolor="#eeeeee"
     borderopacity="1"
     inkscape:pageshadow="0"
     inkscape:pageopacity="0"
     inkscape:pagecheckerboard="0"
     inkscape:document-units="px"
     showgrid="false"
     inkscape:zoom="8.0832385"
     inkscape:cx="47.505712"
     inkscape:cy="48.371701"
     inkscape:window-width="1920"
     inkscape:window-height="991"
     inkscape:window-x="-9"
     inkscape:window-y="-9"
     inkscape:window-maximized="1"
     inkscape:current-layer="layer1"
     units="px"
     inkscape:lockguides="true"
     inkscape:snap-center="true"
     inkscape:snap-object-midpoints="true"
     inkscape:snap-text-baseline="true"
     inkscape:showpageshadow="0"
     inkscape:deskcolor="#505050" />
  <defs
     id="defs2">
    <linearGradient
       inkscape:collect="always"
       id="linearGradient8373">
      <stop
         style="stop-color:#f0f0f0;stop-opacity:1;"
         offset="0"
         id="stop8369" />
      <stop
         style="stop-color:#c8c8c8;stop-opacity:1"
         offset="1"
         id="stop8371" />
    </linearGradient>
    <linearGradient
       inkscape:collect="always"
       id="linearGradient7983">
      <stop
         style="stop-color:#c8c8c8;stop-opacity:1;"
         offset="0"
         id="stop7979" />
      <stop
         style="stop-color:#a0a0a0;stop-opacity:1"
         offset="1"
         id="stop7981" />
    </linearGradient>
    <linearGradient
       inkscape:collect="always"
       id="linearGradient7719">
      <stop
         style="stop-color:#969696;stop-opacity:1;"
         offset="0"
         id="stop7715" />
      <stop
         style="stop-color:#878787;stop-opacity:1"
         offset="1"
         id="stop7717" />
    </linearGradient>
    <linearGradient
       inkscape:collect="always"
       xlink:href="#linearGradient7719"
       id="linearGradient7721"
       x1="13.878514"
       y1="6.7428627"
       x2="13.878514"
       y2="17.675539"
       gradientUnits="userSpaceOnUse"
       gradientTransform="translate(-0.08828055,-3.1706943)" />
    <linearGradient
       inkscape:collect="always"
       xlink:href="#linearGradient7983"
       id="linearGradient7985"
       x1="14.07232"
       y1="0.055876546"
       x2="14.07232"
       y2="23.988077"
       gradientUnits="userSpaceOnUse"
       gradientTransform="scale(1,0.7333333)" />
    <linearGradient
       inkscape:collect="always"
       xlink:href="#linearGradient8373"
       id="linearGradient8375"
       x1="13.933793"
       y1="9.4156837"
       x2="16.942677"
       y2="13.879717"
       gradientUnits="userSpaceOnUse" />
    <linearGradient
       inkscape:collect="always"
       xlink:href="#linearGradient8373"
       id="linearGradient881"
       gradientUnits="userSpaceOnUse"
       x1="13.933793"
       y1="9.4156837"
       x2="16.942677"
       y2="13.879717" />
  </defs>
  <g
     inkscape:label="Layer 1"
     inkscape:groupmode="layer"
     id="layer1">
    <rect
       style="fill:url(#linearGradient7985);fill-opacity:1;stroke:none;stroke-width:0.264584;stroke-linecap:round"
       id="rect929-5"
       width="31.75"
       height="17.4625"
       x="2.0136109e-07"
       y="4.9085702e-07" />
    <path
       id="rect929"
       style="fill:url(#linearGradient7721);fill-opacity:1;stroke-width:0.264583;stroke-linecap:round"
       d="m 9.9658865,3.4438892 c 0,0 3.8785515,-0.2645834 5.8208325,-0.2645834 1.942281,0 5.820834,0.2645834 5.820834,0.2645834 1.171423,0.053247 2.116666,0.9440334 2.116666,2.1166668 0,0 0.132292,2.1157477 0.132292,3.1749997 0,1.059252 -0.132292,3.1750013 -0.132292,3.1750013 -0.04882,1.171616 -0.944033,2.116666 -2.116666,2.116666 0,0 -3.878553,0.264583 -5.820834,0.264583 -1.942281,0 -5.8208325,-0.264583 -5.8208325,-0.264583 C 8.7944629,13.973973 7.84922,13.08319 7.84922,11.910557 c 0,0 -0.132292,-2.1157493 -0.132292,-3.1750013 0,-1.059252 0.132292,-3.1749997 0.132292,-3.1749997 0.048818,-1.1716168 0.9440334,-2.1166668 2.1166665,-2.1166668 z"
       sodipodi:nodetypes="sssssssssssss" />
    <g
       aria-label="?"
       id="text1846"
       style="font-size:8.81944px;line-height:1.25;fill:url(#linearGradient8375);stroke-width:0.264583"
       transform="translate(-0.08828055,-3.1706943)">
      <path
         d="M 15.140765,12.948392 V 12.62972 q 0,-0.292833 0.08182,-0.516764 0.08182,-0.228237 0.262688,-0.430636 0.180868,-0.206706 0.478007,-0.422024 0.266995,-0.18948 0.42633,-0.340203 0.163642,-0.150723 0.236851,-0.29714 0.07751,-0.150722 0.07751,-0.340203 0,-0.279914 -0.206705,-0.42633 -0.206706,-0.1464165 -0.577054,-0.1464165 -0.370347,0 -0.736388,0.1162719 -0.361735,0.116272 -0.736389,0.3057526 L 13.978046,9.1889331 q 0.430636,-0.2411566 0.934481,-0.387573 0.503845,-0.1507229 1.10243,-0.1507229 0.921563,0 1.425408,0.4435558 0.508151,0.4392495 0.508151,1.119655 0,0.361735 -0.116272,0.62873 -0.111965,0.262688 -0.344509,0.490926 -0.228237,0.223931 -0.572747,0.4737 -0.258382,0.18948 -0.396186,0.318671 -0.137803,0.129192 -0.18948,0.258383 -0.04737,0.124884 -0.04737,0.305752 v 0.258382 z m -0.137804,1.472777 q 0,-0.404798 0.219625,-0.56844 0.223931,-0.163642 0.538296,-0.163642 0.305752,0 0.525377,0.163642 0.223931,0.163642 0.223931,0.56844 0,0.387573 -0.223931,0.559828 -0.219625,0.172255 -0.525377,0.172255 -0.314365,0 -0.538296,-0.172255 -0.219625,-0.172255 -0.219625,-0.559828 z"
         style="font-weight:bold;font-family:'Open Sans';-inkscape-font-specification:'Open Sans';fill:url(#linearGradient881)"
         id="path478" />
    </g>
  </g>
</svg>
